<svg width="1024" height="1024" viewBox="58 58 116 116" xmlns="http://www.w3.org/2000/svg">
<title>Notch Sixty app icon</title>
<g transform="translate(116,116)">
<rect x="-58" y="-58" width="116" height="116" fill="#E8A84A"/>
<rect x="-56" y="-56" width="112" height="112" rx="24" fill="none" stroke="#412402" stroke-width="3"/>
<rect x="-48" y="-36" width="96" height="78" rx="4" fill="#FAF6EE"/>
<path d="M -33.83 -4.31 A 36 36 0 0 1 19.34 -22.36" fill="none" stroke="#1A1A1A" stroke-width="2.2"/>
<path d="M 19.34 -22.36 A 36 36 0 0 1 33.83 -4.31" fill="none" stroke="#A32D2D" stroke-width="2.2"/>
<g stroke="#1A1A1A" stroke-width="1.4">
<line x1="-33.83" y1="-4.31" x2="-13.16" y2="3.21"/>
<line x1="-19.34" y1="-22.36" x2="-13.43" y2="-13.08"/>
<line x1="0" y1="-28" x2="0" y2="-6"/>
<line x1="19.34" y1="-22.36" x2="13.43" y2="-13.08"/>
</g>
<g stroke="#A32D2D" stroke-width="1.4">
<line x1="33.83" y1="-4.31" x2="13.16" y2="3.21"/>
</g>
<line x1="0" y1="8" x2="-27.53" y2="-23.32" stroke="#412402" stroke-width="2.8" stroke-linecap="round"/>
<circle cx="0" cy="8" r="3.5" fill="#412402"/>
<text x="0" y="26" text-anchor="middle" font-family="Helvetica, Arial, sans-serif" font-size="9.5" font-weight="700" fill="#633806" letter-spacing="0.5">NOTCH SIXTY</text>
</g>
</svg>
